# xmcd
#
# Track frame offsets: 
#        150
#        12445
#        23835
#        41502
#        55032
#        66450
#        82577
#        100362
#        113767
#        126335
#
# Disc length: 2029 seconds
#
# Revision: 1
# Processed by: cddbd v1.4PL0 Copyright (c) Steve Scherf et al.
# Submitted via: ExactAudioCopy v0.90b2
#
DISCID=7b07eb0a
DTITLE=John Conlee - Songs For The Working Man
DYEAR=1900
DGENRE=Country
TTITLE0=Common Man
TTITLE1=Busted
TTITLE2=Arthur And Alice
TTITLE3=Nothing Behind You (And Nothing In Sight)
TTITLE4=She Loves My Troubles Away
TTITLE5=Friday Night Blues
TTITLE6=Working Man
TTITLE7=But She Loves Me
TTITLE8=The In Crowd
TTITLE9=An American Trilogy
EXTD=
EXTT0=
EXTT1=
EXTT2=
EXTT3=
EXTT4=
EXTT5=
EXTT6=
EXTT7=
EXTT8=
EXTT9=
PLAYORDER=
